#!OML:ASF F:\VICON\USERDATA\INSTALL\rory3\rory3.ASF
:FULLY-SPECIFIED
:DEGREES
401
root -0.0654104 18.0128 -0.923953 2.98319 -11.7023 1.44164
lowerback 0.374226 -2.30228 -3.53041
upperback 0.273111 -3.086 2.32903
thorax 0.386535 -1.56128 4.37077
lowerneck -25.441 0.490545 -8.20883
upperneck 25.5011 3.70349 1.02046
head 12.5552 0.938747 2.40937
rclavicle -3.20043e-014 1.66979e-014
rhumerus -32.9606 -4.76277 -80.2281
rradius 29.7099
rwrist 21.194
rhand -17.7033 8.76699
rfingers 7.12502
rthumb 8.55669 -21.0396
lclavicle -3.20043e-014 1.66979e-014
lhumerus -8.11775 -8.57927 85.555
lradius 69.7354
lwrist 2.19336
lhand -31.7 25.5042
lfingers 7.12502
lthumb -4.9591 55.4262
rfemur -9.66659 9.53119 14.7108
rtibia 25.3118
rfoot -15.5363 -3.2578
rtoes 3.97166
lfemur 0.243613 -2.30622 -21.9643
ltibia 10.8704
lfoot -9.43466 7.57412
ltoes -11.9772
402
root -0.0634458 18.0154 -0.922629 2.99093 -11.7636 1.41637
lowerback 0.29008 -2.33021 -3.49014
upperback 0.271265 -3.12108 2.35988
thorax 0.434958 -1.57991 4.37587
lowerneck -25.6153 0.539852 -8.18028
upperneck 25.5701 3.82526 0.885461
head 12.6156 0.971388 2.37806
rclavicle 2.08724e-015 7.15625e-015
rhumerus -32.7919 -5.02287 -80.151
rradius 29.5502
rwrist 21.419
rhand -17.7963 8.98135
rfingers 7.12502
rthumb 8.46694 -20.8289
lclavicle 2.08724e-015 7.15625e-015
lhumerus -8.77021 -8.34561 85.7079
lradius 69.5268
lwrist 2.12772
lhand -31.6266 25.5042
lfingers 7.12502
lthumb -4.88817 55.4278
rfemur -9.66835 9.5547 14.7281
rtibia 25.2819
rfoot -15.5047 -3.23896
rtoes 3.81199
lfemur 0.340925 -2.39424 -21.9532
ltibia 10.7465
lfoot -9.45806 7.66815
ltoes -11.7924
403
root -0.0613333 18.0161 -0.918194 3.03935 -11.8483 1.53934
lowerback 0.0738988 -2.35903 -3.5702
upperback 0.272832 -3.15352 2.33266
thorax 0.563875 -1.59924 4.38239
lowerneck -25.9266 0.553625 -8.12683
upperneck 25.7271 3.89665 0.776945
head 12.7407 0.98293 2.3483
rclavicle -3.06128e-014 9.54166e-015
rhumerus -32.697 -5.10277 -80.1665
rradius 29.6039
rwrist 21.3763
rhand -17.6661 8.9972
rfingers 7.12502
rthumb 8.59256 -20.808
lclavicle -3.06128e-014 9.54166e-015
lhumerus -9.37319 -8.20405 85.8289
lradius 69.2879
lwrist 2.16097
lhand -31.7979 25.5988
lfingers 7.12502
lthumb -5.05361 55.5186
rfemur -9.68912 9.51793 14.5607
rtibia 25.14
rfoot -15.4268 -3.17238
rtoes 3.89514
lfemur 0.205718 -2.41977 -22.1122
ltibia 10.9123
lfoot -9.5923 7.76471
ltoes -11.8462
404
root -0.0597713 18.0141 -0.914676 3.04501 -11.9297 1.47969
lowerback -0.0340748 -2.38343 -3.48336
upperback 0.253697 -3.1834 2.35506
thorax 0.60429 -1.61449 4.35173
lowerneck -26.027 0.563365 -8.08985
upperneck 25.751 3.93564 0.685377
head 12.772 0.988397 2.31574
rclavicle 5.65045e-014 -4.77083e-015
rhumerus -32.7022 -5.17545 -80.1721
rradius 29.6817
rwrist 21.2952
rhand -17.5322 8.86101
rfingers 7.12502
rthumb 8.72177 -20.9388
lclavicle 5.65045e-014 -4.77083e-015
lhumerus -10.0994 -8.00382 86.0164
lradius 69.0387
lwrist 2.08263
lhand -31.9307 25.3524
lfingers 7.12502
lthumb -5.18185 55.269
rfemur -9.59073 9.5829 14.6163
rtibia 24.9457
rfoot -15.3955 -3.18603
rtoes 3.82706
lfemur 0.0953097 -2.49605 -22.0656
ltibia 11.2055
lfoot -9.77952 7.91021
ltoes -11.7656
405
root -0.0579498 18.011 -0.914219 2.87001 -12.093 0.712571
lowerback 0.249244 -2.34021 -2.70563
upperback 0.295718 -3.13366 2.57327
thorax 0.453801 -1.58522 4.15205
lowerneck -25.9852 0.600942 -7.99508
upperneck 25.7201 4.00969 0.475594
head 12.7568 1.00139 2.23075
rclavicle 1.01231e-013 -1.03368e-014
rhumerus -32.7661 -5.14562 -80.1658
rradius 29.7914
rwrist 21.253
rhand -17.2162 7.98188
rfingers 7.12502
rthumb 9.02668 -21.805
lclavicle 1.01231e-013 -1.03368e-014
lhumerus -10.8943 -7.77488 86.2483
lradius 68.8114
lwrist 1.85364
lhand -31.7881 25.2216
lfingers 7.12502
lthumb -5.04416 55.1416
rfemur -9.21702 9.8971 15.5237
rtibia 24.8727
rfoot -15.4243 -3.24254
rtoes 3.74192
lfemur 0.467387 -2.46845 -21.2533
ltibia 11.2409
lfoot -9.87289 8.08071
ltoes -11.5912
406
root -0.0577292 18.0099 -0.914126 2.77704 -12.3103 0.374983
lowerback 0.330542 -2.27805 -2.35724
upperback 0.336318 -3.05216 2.66401
thorax 0.429013 -1.54372 4.05311
lowerneck -26.0664 0.632381 -7.84659
upperneck 25.693 4.07012 0.253313
head 12.7695 1.0108 2.13186
rclavicle 6.06293e-015 7.15625e-015
rhumerus -32.7685 -5.13381 -80.2114
rradius 29.9695
rwrist 21.3492
rhand -16.7187 6.57157
rfingers 7.12502
rthumb 9.50676 -23.194
lclavicle 6.06293e-015 7.15625e-015
lhumerus -11.5691 -7.66551 86.4177
lradius 68.5853
lwrist 1.64407
lhand -31.5872 25.1062
lfingers 7.12502
lthumb -4.85011 55.0307
rfemur -9.08636 10.1443 15.9202
rtibia 24.883
rfoot -15.3737 -3.22321
rtoes 4.15538
lfemur 0.707653 -2.33278 -20.8982
ltibia 11.1638
lfoot -9.89795 8.1718
ltoes -11.5391
407
root -0.0585797 18.0092 -0.912264 2.86207 -12.4706 1.11658
lowerback -0.022804 -2.27813 -3.08747
upperback 0.278016 -3.04466 2.46319
thorax 0.593915 -1.54404 4.24264
lowerneck -26.1865 0.668869 -7.73523
upperneck 25.6585 4.11899 0.151245
head 12.7822 1.02899 2.08398
rclavicle 1.9133e-014 -1.98785e-014
rhumerus -32.7024 -5.18621 -80.3006
rradius 30.0803
rwrist 21.3523
rhand -16.4234 5.91824
rfingers 7.12502
rthumb 9.79168 -23.8341
lclavicle 1.9133e-014 -1.98785e-014
lhumerus -12.206 -7.521 86.5755
lradius 68.34
lwrist 1.66137
lhand -31.5295 24.7999
lfingers 7.12502
lthumb -4.79441 54.7257
rfemur -9.40107 10.006 15.0317
rtibia 24.9329
rfoot -15.2526 -3.00958
rtoes 4.30944
lfemur 0.501376 -2.17109 -21.7047
ltibia 11.0918
lfoot -9.84271 8.14583
ltoes -11.558
408
root -0.0581351 18.0082 -0.911439 2.89545 -12.5426 1.5773
lowerback -0.264294 -2.30228 -3.53961
upperback 0.261738 -3.06848 2.33527
thorax 0.731818 -1.56001 4.35436
lowerneck -26.2672 0.671026 -7.65424
upperneck 25.5714 4.11405 0.0834779
head 12.7666 1.02815 2.04317
rclavicle 1.81888e-014 -1.43125e-014
rhumerus -32.6044 -5.3129 -80.3522
rradius 30.0609
rwrist 21.298
rhand -16.6919 6.43729
rfingers 7.12502
rthumb 9.53264 -23.3271
lclavicle 1.81888e-014 -1.43125e-014
lhumerus -12.8124 -7.36712 86.7252
lradius 68.1129
lwrist 1.88069
lhand -31.411 24.5795
lfingers 7.12502
lthumb -4.67998 54.5078
rfemur -9.62738 9.90286 14.4734
rtibia 25.0895
rfoot -15.3299 -2.80251
rtoes 4.15827
lfemur 0.530728 -2.15993 -22.2162
ltibia 10.7712
lfoot -9.6445 8.15768
ltoes -11.7708
409
root -0.0548802 18.0064 -0.912774 2.82719 -12.5727 1.56218
lowerback -0.281036 -2.32043 -3.4699
upperback 0.315781 -3.09254 2.32684
thorax 0.795033 -1.57406 4.30368
lowerneck -26.4547 0.633683 -7.66907
upperneck 25.5855 4.09411 0.0618078
head 12.8106 1.01217 2.03659
rclavicle 4.23908e-014 -1.82882e-014
rhumerus -32.4926 -5.50634 -80.3458
rradius 29.9877
rwrist 21.3295
rhand -17.3075 7.45868
rfingers 7.12502
rthumb 8.93866 -22.332
lclavicle 4.23908e-014 -1.82882e-014
lhumerus -13.3073 -7.1333 86.8746
lradius 67.7746
lwrist 1.81527
lhand -31.2109 24.5892
lfingers 7.12502
lthumb -4.48674 54.5217
rfemur -9.6433 9.89371 14.4871
rtibia 25.2597
rfoot -15.407 -2.70396
rtoes 4.07499
lfemur 0.831714 -2.26424 -22.2304
ltibia 10.3305
lfoot -9.43173 8.27428
ltoes -11.7816
410
root -0.0520674 18.0048 -0.912792 2.76639 -12.6231 1.50654
lowerback -0.228266 -2.3288 -3.3708
upperback 0.296809 -3.10566 2.33973
thorax 0.742634 -1.57871 4.26377
lowerneck -26.6099 0.626029 -7.69745
upperneck 25.6598 4.12032 0.0445211
head 12.8702 1.01332 2.04282
rclavicle -1.55052e-014 1.59028e-014
rhumerus -32.4995 -5.59126 -80.3427
rradius 29.9634
rwrist 21.3397
rhand -17.5294 8.04253
rfingers 7.12502
rthumb 8.72451 -21.7572
lclavicle -1.55052e-014 1.59028e-014
lhumerus -13.8738 -6.92539 87.0765
lradius 67.3265
lwrist 1.59077
lhand -31.2858 24.3756
lfingers 7.12502
lthumb -4.5591 54.3066
rfemur -9.59825 9.91027 14.545
rtibia 25.2965
rfoot -15.4009 -2.63849
rtoes 4.43384
lfemur 0.999944 -2.33424 -22.1939
ltibia 10.155
lfoot -9.36169 8.39088
ltoes -11.6952
411
root -0.048642 18.0048 -0.912394 2.73965 -12.6703 1.4847
lowerback -0.238832 -2.32885 -3.30018
upperback 0.288572 -3.10579 2.3449
thorax 0.736576 -1.57815 4.22906
lowerneck -26.896 0.61327 -7.6868
upperneck 25.8091 4.14323 0.0180814
head 12.9873 1.01092 2.04192
rclavicle -3.94588e-014 2.22639e-014
rhumerus -32.496 -5.64682 -80.3685
rradius 30.0394
rwrist 21.366
rhand -17.4522 7.99813
rfingers 7.12502
rthumb 8.79899 -21.7984
lclavicle -3.94588e-014 2.22639e-014
lhumerus -14.4053 -6.74652 87.3287
lradius 66.925
lwrist 1.53195
lhand -31.325 23.9755
lfingers 7.12502
lthumb -4.597 53.9056
rfemur -9.55158 9.93048 14.5545
rtibia 25.2657
rfoot -15.4056 -2.56962
rtoes 4.93412
lfemur 1.05451 -2.33758 -22.1937
ltibia 10.1193
lfoot -9.33451 8.47596
ltoes -11.8137
412
root -0.0450432 18.0067 -0.914881 2.80066 -12.6489 1.54811
lowerback -0.356154 -2.35061 -3.26087
upperback 0.258876 -3.13156 2.28903
thorax 0.769024 -1.59066 4.14407
lowerneck -27.1229 0.607449 -7.54765
upperneck 25.9447 4.14327 -0.100253
head 13.0943 0.999079 1.97891
rclavicle 2.06736e-014 1.03368e-014
rhumerus -32.5291 -5.60622 -80.4958
rradius 30.1941
rwrist 21.1827
rhand -17.5154 7.92289
rfingers 7.12502
rthumb 8.73796 -21.8762
lclavicle 2.06736e-014 1.03368e-014
lhumerus -14.9643 -6.57701 87.5361
lradius 66.6409
lwrist 1.53323
lhand -31.202 23.8362
lfingers 7.12502
lthumb -4.47817 53.7689
rfemur -9.6386 9.87165 14.4543
rtibia 25.2561
rfoot -15.3792 -2.51628
rtoes 4.86927
lfemur 1.00654 -2.44488 -22.2861
ltibia 10.035
lfoot -9.24514 8.58357
ltoes -11.8931
413
root -0.0416236 18.0083 -0.917233 2.85416 -12.5957 1.67941
lowerback -0.436653 -2.38306 -3.25756
upperback 0.195501 -3.17188 2.18995
thorax 0.746994 -1.60871 4.0369
lowerneck -27.2512 0.60636 -7.43578
upperneck 26.0132 4.12364 -0.142589
head 13.1519 0.991309 1.94363
rclavicle -1.27222e-014 1.11319e-014
rhumerus -32.6208 -5.62725 -80.6507
rradius 30.3477
rwrist 21.0842
rhand -17.6436 7.9071
rfingers 7.12502
rthumb 8.6143 -21.8972
lclavicle -1.27222e-014 1.11319e-014
lhumerus -15.5022 -6.51341 87.655
lradius 66.317
lwrist 1.6028
lhand -31.2112 23.9227
lfingers 7.12502
lthumb -4.48708 53.8552
rfemur -9.72776 9.76004 14.2809
rtibia 25.2417
rfoot -15.3238 -2.49601
rtoes 4.56442
lfemur 0.936502 -2.50352 -22.4335
ltibia 9.96601
lfoot -9.2114 8.54557
ltoes -11.717
414
root -0.039369 18.0083 -0.918679 2.87421 -12.5964 1.75899
lowerback -0.503722 -2.39537 -3.33102
upperback 0.166598 -3.18609 2.18882
thorax 0.76021 -1.61593 4.07448
lowerneck -27.4665 0.556514 -7.51408
upperneck 26.1188 4.08864 -0.0641244
head 13.2352 0.972781 1.98565
rclavicle -6.88292e-014 1.27222e-014
rhumerus -32.6488 -5.58192 -80.7018
rradius 30.4754
rwrist 21.0357
rhand -17.8412 7.97115
rfingers 7.12502
rthumb 8.42358 -21.8409
lclavicle -6.88292e-014 1.27222e-014
lhumerus -15.991 -6.45086 87.8667
lradius 66.023
lwrist 1.78399
lhand -31.3103 23.9078
lfingers 7.12502
lthumb -4.58276 53.8382
rfemur -9.76692 9.72076 14.1722
rtibia 25.2101
rfoot -15.2953 -2.46993
rtoes 4.57692
lfemur 0.901988 -2.50431 -22.5241
ltibia 9.94902
lfoot -9.22426 8.51191
ltoes -11.619
415
root -0.0365215 18.0067 -0.920356 2.84855 -12.5908 1.67889
lowerback -0.574439 -2.40209 -3.30344
upperback 0.196768 -3.19426 2.27041
thorax 0.834863 -1.6224 4.13914
lowerneck -27.6296 0.495571 -7.60251
upperneck 26.1772 4.05458 -0.0468809
head 13.2914 0.946999 2.0038
rclavicle 3.598e-014 -8.74653e-015
rhumerus -32.612 -5.44853 -80.7043
rradius 30.5912
rwrist 20.8314
rhand -17.9473 7.9774
rfingers 7.12502
rthumb 8.32115 -21.8387
lclavicle 3.598e-014 -8.74653e-015
lhumerus -16.4909 -6.33421 88.1781
lradius 65.8309
lwrist 2.0045
lhand -31.3979 23.9315
lfingers 7.12502
lthumb -4.66737 53.86
rfemur -9.69784 9.76421 14.2577
rtibia 25.1576
rfoot -15.3044 -2.47599
rtoes 4.87036
lfemur 0.923696 -2.50042 -22.4466
ltibia 10.0083
lfoot -9.27575 8.52226
ltoes -11.6613
